<svg width="44" height="44" viewBox="0 0 44 44" fill="none" xmlns="http://www.w3.org/2000/svg">
<rect width="44" height="44" rx="10" fill="#2F3A56"/>
<path fill-rule="evenodd" clip-rule="evenodd" d="M19 17C19 15.3431 20.3431 14 22 14C23.6569 14 25 15.3431 25 17H19ZM17 19V20C17 20.5523 17.4477 21 18 21C18.5523 21 19 20.5523 19 20V19H25V20C25 20.5523 25.4477 21 26 21C26.5523 21 27 20.5523 27 20V19H28.905L28.1695 27.0905C28.1226 27.6056 27.6908 28 27.1736 28H16.8264C16.3092 28 15.8774 27.6056 15.8305 27.0905L15.095 19H17ZM17 17C17 14.2386 19.2386 12 22 12C24.7614 12 27 14.2386 27 17H30C30.281 17 30.549 17.1182 30.7384 17.3257C30.9279 17.5331 31.0213 17.8107 30.9959 18.0905L30.1613 27.2716C30.0208 28.8168 28.7252 30 27.1736 30H16.8264C15.2748 30 13.9792 28.8168 13.8388 27.2716L13.0041 18.0905C12.9787 17.8107 13.0721 17.5331 13.2616 17.3257C13.451 17.1182 13.719 17 14 17H17Z" fill="#F6F6FF"/>
</svg>
