<svg width="44" height="44" viewBox="0 0 44 44" fill="none" xmlns="http://www.w3.org/2000/svg">
<rect width="44" height="44" rx="10" fill="url(#paint0_linear_23_6)"/>
<path fill-rule="evenodd" clip-rule="evenodd" d="M22 14C17.5817 14 14 17.5817 14 22C14 23.4369 14.378 24.7832 15.0399 25.9474C15.9539 24.7632 17.3871 24 19 24H25C26.6128 24 28.0461 24.7632 28.9601 25.9475C29.622 24.7833 30 23.4369 30 22C30 17.5817 26.4183 14 22 14ZM29.9429 28.0761C30.0682 27.9125 30.1886 27.745 30.3038 27.5737C31.3749 25.9807 32 24.0618 32 22C32 16.4772 27.5228 12 22 12C16.4772 12 12 16.4772 12 22C12 24.0618 12.6251 25.9807 13.6962 27.5737C13.8114 27.745 13.9317 27.9125 14.057 28.076L14.0518 28.0936L14.4068 28.5074C16.2393 30.6439 18.9618 32 22 32C22 32 22 32 22 32C22.2163 32 22.431 31.9931 22.6438 31.9796C24.5055 31.8613 26.2285 31.2333 27.6751 30.2346C28.3869 29.7431 29.0318 29.1619 29.5932 28.5074L29.9482 28.0936L29.9429 28.0761ZM26.1334 28.8511C26.696 28.5109 27.2134 28.1032 27.6746 27.6391C27.1782 26.6657 26.1659 26 25 26H19C17.8341 26 16.8217 26.6657 16.3254 27.6391C17.7755 29.0984 19.782 30 22 30C22.2871 30 22.5706 29.9849 22.8499 29.9554C24.0418 29.8296 25.1558 29.4421 26.1334 28.8511ZM22 18C21.4477 18 21 18.4477 21 19C21 19.5523 21.4477 20 22 20C22.5523 20 23 19.5523 23 19C23 18.4477 22.5523 18 22 18ZM19 19C19 17.3431 20.3431 16 22 16C23.6569 16 25 17.3431 25 19C25 20.6569 23.6569 22 22 22C20.3431 22 19 20.6569 19 19Z" fill="#F6F6FF"/>
<defs>
<linearGradient id="paint0_linear_23_6" x1="22" y1="0" x2="22" y2="44" gradientUnits="userSpaceOnUse">
<stop stop-color="#E2474B"/>
<stop offset="1" stop-color="#2F3A56"/>
</linearGradient>
</defs>
</svg>
