<svg width="20" height="20" viewBox="0 0 20 20" fill="none" xmlns="http://www.w3.org/2000/svg">
<path d="M18.2929 19.7071C18.6834 20.0976 19.3166 20.0976 19.7071 19.7071C20.0976 19.3166 20.0976 18.6834 19.7071 18.2929L18.2929 19.7071ZM9 16C5.13401 16 2 12.866 2 9H0C0 13.9706 4.02944 18 9 18V16ZM2 9C2 5.13401 5.13401 2 9 2V0C4.02944 0 0 4.02944 0 9H2ZM9 2C12.866 2 16 5.13401 16 9H18C18 4.02944 13.9706 0 9 0V2ZM16 9C16 10.9333 15.2176 12.6819 13.9497 13.9497L15.364 15.364C16.9915 13.7364 18 11.485 18 9H16ZM13.9497 13.9497C12.6819 15.2176 10.9333 16 9 16V18C11.485 18 13.7364 16.9915 15.364 15.364L13.9497 13.9497ZM13.9497 15.364L18.2929 19.7071L19.7071 18.2929L15.364 13.9497L13.9497 15.364Z" fill="#F6F6FF"/>
</svg>
