<svg width="13.000000" height="13.000000" viewBox="0 0 13 13" fill="none" xmlns="http://www.w3.org/2000/svg" xmlns:xlink="http://www.w3.org/1999/xlink">
	<desc>
			Created with Pixso.
	</desc>
	<defs/>
	<path id="Union" d="M1.70752 0.292847L6.00049 4.58569L10.293 0.292969C10.689 -0.103027 11.311 -0.103027 11.707 0.292969C12.103 0.688965 12.103 1.31116 11.707 1.70715L7.41455 5.99988L11.7075 10.2927C12.1035 10.6887 12.1035 11.3109 11.7075 11.7069C11.3115 12.1029 10.689 12.1029 10.293 11.7069L6.00049 7.41406L1.70752 11.707C1.31152 12.103 0.688965 12.103 0.292969 11.707C-0.103027 11.311 -0.103027 10.6888 0.292969 10.2928L4.58594 5.99988L0.292969 1.70703C-0.103027 1.31104 -0.103027 0.688843 0.292969 0.292847C0.688965 -0.103149 1.31152 -0.103149 1.70752 0.292847Z" clip-rule="evenodd" fill="#2F3A56" fill-opacity="1.000000" fill-rule="evenodd"/>
</svg>
