<svg width="98.000000" height="63.000000" viewBox="0 0 98 63" fill="none" xmlns="http://www.w3.org/2000/svg" xmlns:xlink="http://www.w3.org/1999/xlink">
	<desc>
			Created with Pixso.
	</desc>
	<defs>
		<linearGradient id="paint_linear_1_1062_0" x1="48.655262" y1="0.000000" x2="48.655262" y2="63.000031" gradientUnits="userSpaceOnUse">
			<stop stop-color="#E2474B"/>
			<stop offset="1.000000" stop-color="#2F3A56"/>
		</linearGradient>
	</defs>
	<path d="M51.9926 0L66.6301 0L66.6301 63L51.9926 63L51.9926 0ZM14.6376 0L0 0L0 63L14.6376 63L14.6376 0ZM30.7975 0L14.6376 0L14.6376 14.6375L30.7975 14.6375L30.7975 0ZM38.7603 14.6375L30.7975 14.6375L30.7975 30.7974L38.7603 30.7974C43.2227 30.7974 46.8402 27.1799 46.8402 22.7175C46.8402 18.2551 43.2227 14.6375 38.7603 14.6375ZM14.6376 30.7974L30.7975 30.7974L30.7975 45.4351L14.6376 45.4351L14.6376 30.7974ZM80.448 48.3625L89.9917 48.3625C94.0338 48.3625 97.3105 51.6392 97.3105 55.6812C97.3105 59.7234 94.0338 63 89.9917 63L80.448 63L80.448 48.3625Z" clip-rule="evenodd" fill="url(#paint_linear_1_1062_0)" fill-opacity="1.000000" fill-rule="evenodd"/>
</svg>
